<svg viewBox="0 0 100 100" xmlns="http://www.w3.org/2000/svg">
<circle cx="48" cy="43" r="2"/>
<circle cx="4" cy="19" r="5"/>
<circle cx="83" cy="37" r="2"/>
<circle cx="50" cy="26" r="10"/>
<circle cx="17" cy="48" r="10"/>
<circle cx="10" cy="83" r="7"/>
<circle cx="79" cy="15" r="10"/>
<circle cx="74" cy="85" r="7"/>
<circle cx="61" cy="63" r="7"/>
<circle cx="29" cy="79" r="9"/>
<circle cx="29" cy="33" r="8"/>
<circle cx="0" cy="42" r="2"/>
<circle cx="35" cy="60" r="7"/>
<circle cx="40" cy="47" r="6"/>
<circle cx="20" cy="19" r="2"/>
<circle cx="79" cy="52" r="9"/>
<circle cx="12" cy="0" r="5"/>
<circle cx="63" cy="2" r="3"/>
<circle cx="64" cy="13" r="1"/>
<circle cx="15" cy="68" r="5"/>
<circle cx="50" cy="4" r="10"/>
<circle cx="60" cy="9" r="1"/>
<circle cx="91" cy="27" r="2"/>
<circle cx="28" cy="5" r="2"/>
<circle cx="72" cy="33" r="1"/>
</svg>