<svg viewBox="0 0 100 100" xmlns="http://www.w3.org/2000/svg">
<polygon fill="#73fbfb" fill-opacity="59%" points="97,2 57,82 137,82" stroke="#c92a29" stroke-width="3" transform="rotate(40 97 42)"/>
<rect fill="#e5d4d1" fill-opacity="50%" height="46" stroke="#fb1aee" stroke-width="4" transform="rotate(44 73 10)" width="46" x="73" y="10"/>
<circle cx="28" cy="53" fill="#f938b7" fill-opacity="9%" r="54" stroke="#3b415a" stroke-width="5"/>
<circle cx="0" cy="95" fill="#05bd36" fill-opacity="13%" r="17" stroke="#a9627a" stroke-width="5"/>
<polygon fill="#9a4d29" fill-opacity="44%" points="56,38 21,108 91,108" stroke="#b2c8da" stroke-width="4" transform="rotate(53 56 73)"/>
<polygon fill="#f3a1dc" fill-opacity="61%" points="21,56 0,136 61,136" stroke="#4a75a9" stroke-width="5" transform="rotate(1 21 96)"/>
<rect fill="#a7d0be" fill-opacity="35%" height="52" stroke="#136d43" stroke-width="4" transform="rotate(51 61 37)" width="52" x="61" y="37"/>
<circle cx="99" cy="81" fill="#93fe3b" fill-opacity="36%" r="27" stroke="#3b1efe" stroke-width="1"/>
<polygon fill="#4b5625" fill-opacity="30%" points="6,81 4,85 8,85" stroke="#10b708" stroke-width="1" transform="rotate(14 6 83)"/>
<polygon fill="#da6623" fill-opacity="55%" points="13,27 0,95 47,95" stroke="#959d31" stroke-width="3" transform="rotate(22 13 61)"/>
<polygon fill="#82f580" fill-opacity="51%" points="10,55 0,91 28,91" stroke="#ba8ac7" stroke-width="4" transform="rotate(35 10 73)"/>
<circle cx="35" cy="65" fill="#102d0c" fill-opacity="25%" r="84" stroke="#5315ba" stroke-width="4"/>
<circle cx="98" cy="31" fill="#cf3101" fill-opacity="14%" r="97" stroke="#89e1ed" stroke-width="2"/>
<circle cx="19" cy="68" fill="#b756cc" fill-opacity="37%" r="41" stroke="#287054" stroke-width="2"/>
<polygon fill="#5f4f0e" fill-opacity="42%" points="43,30 20,76 66,76" stroke="#b32491" stroke-width="1" transform="rotate(1 43 53)"/>
<rect fill="#7a4355" fill-opacity="45%" height="87" stroke="#46a97c" stroke-width="1" transform="rotate(58 85 29)" width="87" x="85" y="29"/>
<rect fill="#5a72eb" fill-opacity="48%" height="89" stroke="#688ef1" stroke-width="2" transform="rotate(13 96 61)" width="89" x="96" y="61"/>
<polygon fill="#ced3a4" fill-opacity="54%" points="9,14 0,112 58,112" stroke="#9452d1" stroke-width="4" transform="rotate(72 9 63)"/>
<circle cx="7" cy="18" fill="#4844e6" fill-opacity="27%" r="60" stroke="#4c83f3" stroke-width="2"/>
<circle cx="53" cy="92" fill="#866c8d" fill-opacity="63%" r="90" stroke="#145115" stroke-width="5"/>
<polygon fill="#96f529" fill-opacity="44%" points="50,0 37,23 63,23" stroke="#05843a" stroke-width="2" transform="rotate(68 50 10)"/>
<rect fill="#e4bc8b" fill-opacity="19%" height="11" stroke="#f8ce88" stroke-width="5" transform="rotate(61 58 50)" width="11" x="58" y="50"/>
<polygon fill="#545d50" fill-opacity="14%" points="92,4 46,96 138,96" stroke="#8545e5" stroke-width="1" transform="rotate(19 92 50)"/>
<rect fill="#a9cf10" fill-opacity="39%" height="19" stroke="#c19226" stroke-width="5" transform="rotate(4 9 26)" width="19" x="9" y="26"/>
<circle cx="72" cy="4" fill="#75e95f" fill-opacity="11%" r="1" stroke="#5ca25c" stroke-width="1"/>
<circle cx="49" cy="59" fill="#1185fd" fill-opacity="0%" r="99" stroke="#8ed27d" stroke-width="4"/>
<rect fill="#018c47" fill-opacity="12%" height="49" stroke="#f63e89" stroke-width="5" transform="rotate(35 35 23)" width="49" x="35" y="23"/>
<rect fill="#fd1131" fill-opacity="2%" height="56" stroke="#a11925" stroke-width="5" transform="rotate(79 51 87)" width="56" x="51" y="87"/>
<circle cx="30" cy="60" fill="#9cdb00" fill-opacity="16%" r="88" stroke="#38adb3" stroke-width="3"/>
<circle cx="36" cy="57" fill="#c6ecdd" fill-opacity="57%" r="30" stroke="#b2f962" stroke-width="3"/>
<rect fill="#0a997d" fill-opacity="38%" height="73" stroke="#37878d" stroke-width="4" transform="rotate(15 94 26)" width="73" x="94" y="26"/>
<circle cx="36" cy="1" fill="#1f3ec8" fill-opacity="53%" r="56" stroke="#165754" stroke-width="4"/>
<circle cx="7" cy="20" fill="#968ba0" fill-opacity="34%" r="30" stroke="#720654" stroke-width="1"/>
<rect fill="#571370" fill-opacity="5%" height="82" stroke="#e48e31" stroke-width="5" transform="rotate(62 57 75)" width="82" x="57" y="75"/>
<circle cx="38" cy="35" fill="#d04f4e" fill-opacity="10%" r="80" stroke="#a14a94" stroke-width="2"/>
<rect fill="#b1acce" fill-opacity="7%" height="67" stroke="#27a37a" stroke-width="3" transform="rotate(64 87 34)" width="67" x="87" y="34"/>
<rect fill="#6ba9ba" fill-opacity="58%" height="13" stroke="#caaa23" stroke-width="3" transform="rotate(47 13 48)" width="13" x="13" y="48"/>
<polygon fill="#382108" fill-opacity="2%" points="51,37 36,67 66,67" stroke="#23525a" stroke-width="3" transform="rotate(10 51 52)"/>
<circle cx="25" cy="30" fill="#29abfd" fill-opacity="39%" r="97" stroke="#66c071" stroke-width="5"/>
<rect fill="#624ace" fill-opacity="38%" height="43" stroke="#58f868" stroke-width="2" transform="rotate(26 38 43)" width="43" x="38" y="43"/>
<rect fill="#b33215" fill-opacity="4%" height="10" stroke="#8ea85f" stroke-width="5" transform="rotate(20 36 38)" width="10" x="36" y="38"/>
<polygon fill="#5f4006" fill-opacity="4%" points="76,12 36,92 116,92" stroke="#0a71ad" stroke-width="4" transform="rotate(68 76 52)"/>
<rect fill="#1f2780" fill-opacity="40%" height="25" stroke="#a6c539" stroke-width="2" transform="rotate(63 71 66)" width="25" x="71" y="66"/>
<rect fill="#19b607" fill-opacity="11%" height="84" stroke="#8e0345" stroke-width="2" transform="rotate(80 0 44)" width="84" x="0" y="44"/>
<circle cx="57" cy="99" fill="#3bac10" fill-opacity="24%" r="23" stroke="#c7677a" stroke-width="2"/>
<polygon fill="#41a97d" fill-opacity="38%" points="15,12 0,74 46,74" stroke="#d7511e" stroke-width="1" transform="rotate(84 15 43)"/>
<polygon fill="#da4f5b" fill-opacity="17%" points="71,71 51,111 91,111" stroke="#38c4b0" stroke-width="1" transform="rotate(3 71 91)"/>
<rect fill="#ea175b" fill-opacity="49%" height="99" stroke="#8bf1d1" stroke-width="5" transform="rotate(24 85 13)" width="99" x="85" y="13"/>
<circle cx="58" cy="64" fill="#881097" fill-opacity="45%" r="82" stroke="#6cddc5" stroke-width="5"/>
<rect fill="#5cc71e" fill-opacity="30%" height="18" stroke="#b65406" stroke-width="2" transform="rotate(60 86 22)" width="18" x="86" y="22"/>
<circle cx="50" cy="89" fill="#3199ca" fill-opacity="43%" r="36" stroke="#28b727" stroke-width="1"/>
<rect fill="#63d192" fill-opacity="41%" height="94" stroke="#eddc45" stroke-width="2" transform="rotate(56 21 17)" width="94" x="21" y="17"/>
<rect fill="#bbf9e2" fill-opacity="31%" height="0" stroke="#b43e92" stroke-width="1" transform="rotate(1 6 91)" width="0" x="6" y="91"/>
<polygon fill="#906c42" fill-opacity="56%" points="95,0 72,39 118,39" stroke="#cfbb67" stroke-width="4" transform="rotate(33 95 16)"/>
<polygon fill="#d1194f" fill-opacity="52%" points="98,0 49,64 147,64" stroke="#093ee3" stroke-width="5" transform="rotate(4 98 15)"/>
<polygon fill="#afe8cf" fill-opacity="62%" points="41,29 0,113 83,113" stroke="#4276ed" stroke-width="1" transform="rotate(14 41 71)"/>
<polygon fill="#1fc439" fill-opacity="48%" points="56,81 52,89 60,89" stroke="#d58556" stroke-width="2" transform="rotate(29 56 85)"/>
<rect fill="#dcb38f" fill-opacity="42%" height="14" stroke="#d55973" stroke-width="3" transform="rotate(82 15 99)" width="14" x="15" y="99"/>
<polygon fill="#bd7397" fill-opacity="41%" points="40,50 18,94 62,94" stroke="#21bd13" stroke-width="5" transform="rotate(89 40 72)"/>
<rect fill="#293502" fill-opacity="10%" height="36" stroke="#2bb133" stroke-width="1" transform="rotate(63 8 43)" width="36" x="8" y="43"/>
<polygon fill="#45f945" fill-opacity="31%" points="55,76 41,104 69,104" stroke="#7b4e81" stroke-width="2" transform="rotate(14 55 90)"/>
<circle cx="20" cy="30" fill="#1e73db" fill-opacity="7%" r="47" stroke="#5967f0" stroke-width="4"/>
<rect fill="#c5e901" fill-opacity="40%" height="8" stroke="#ec2e13" stroke-width="1" transform="rotate(66 88 39)" width="8" x="88" y="39"/>
<rect fill="#606c0b" fill-opacity="2%" height="25" stroke="#7bb742" stroke-width="2" transform="rotate(45 7 84)" width="25" x="7" y="84"/>
<rect fill="#e8629f" fill-opacity="62%" height="55" stroke="#adb387" stroke-width="5" transform="rotate(79 66 14)" width="55" x="66" y="14"/>
<circle cx="38" cy="88" fill="#ab1d47" fill-opacity="37%" r="77" stroke="#bfcc44" stroke-width="2"/>
<circle cx="45" cy="68" fill="#6ebf0a" fill-opacity="6%" r="64" stroke="#56ca45" stroke-width="5"/>
<rect fill="#7b3b1c" fill-opacity="0%" height="93" stroke="#989fcf" stroke-width="4" transform="rotate(35 35 31)" width="93" x="35" y="31"/>
<circle cx="52" cy="13" fill="#4a4688" fill-opacity="42%" r="4" stroke="#59c1ca" stroke-width="2"/>
<polygon fill="#23c681" fill-opacity="16%" points="86,6 59,60 113,60" stroke="#b49fea" stroke-width="4" transform="rotate(78 86 33)"/>
<circle cx="98" cy="50" fill="#4c0593" fill-opacity="17%" r="2" stroke="#42b069" stroke-width="5"/>
<polygon fill="#fa02e9" fill-opacity="44%" points="77,0 33,66 121,66" stroke="#cb7ea3" stroke-width="1" transform="rotate(59 77 22)"/>
<rect fill="#ff2146" fill-opacity="41%" height="26" stroke="#4ce3e9" stroke-width="1" transform="rotate(79 22 17)" width="26" x="22" y="17"/>
<circle cx="77" cy="62" fill="#724a43" fill-opacity="57%" r="17" stroke="#704497" stroke-width="2"/>
<polygon fill="#8072cc" fill-opacity="9%" points="97,91 96,93 98,93" stroke="#eef322" stroke-width="2" transform="rotate(35 97 92)"/>
<polygon fill="#3b5735" fill-opacity="19%" points="48,80 34,108 62,108" stroke="#f1b09b" stroke-width="3" transform="rotate(18 48 94)"/>
<circle cx="93" cy="76" fill="#c17159" fill-opacity="54%" r="66" stroke="#0ffc78" stroke-width="2"/>
<circle cx="41" cy="85" fill="#0df809" fill-opacity="18%" r="59" stroke="#9ffe2a" stroke-width="4"/>
<circle cx="51" cy="68" fill="#ab1585" fill-opacity="7%" r="57" stroke="#ac6b4d" stroke-width="4"/>
<polygon fill="#fe3812" fill-opacity="9%" points="19,5 0,69 51,69" stroke="#333a7b" stroke-width="2" transform="rotate(34 19 37)"/>
<circle cx="15" cy="73" fill="#b072c6" fill-opacity="13%" r="53" stroke="#30d646" stroke-width="4"/>
<rect fill="#df9cfb" fill-opacity="28%" height="98" stroke="#7118e4" stroke-width="1" transform="rotate(64 38 53)" width="98" x="38" y="53"/>
<polygon fill="#386e56" fill-opacity="36%" points="43,85 38,95 48,95" stroke="#1cded9" stroke-width="5" transform="rotate(41 43 90)"/>
<circle cx="31" cy="41" fill="#879eb4" fill-opacity="40%" r="19" stroke="#bb227b" stroke-width="2"/>
<circle cx="14" cy="11" fill="#01684f" fill-opacity="58%" r="25" stroke="#8ad307" stroke-width="3"/>
<rect fill="#70e362" fill-opacity="12%" height="78" stroke="#5d17cf" stroke-width="2" transform="rotate(62 83 47)" width="78" x="83" y="47"/>
<circle cx="70" cy="95" fill="#96306c" fill-opacity="64%" r="18" stroke="#a38548" stroke-width="4"/>
<polygon fill="#3d7034" fill-opacity="9%" points="99,17 94,27 104,27" stroke="#68c300" stroke-width="3" transform="rotate(89 99 22)"/>
<polygon fill="#5a2c4f" fill-opacity="11%" points="46,42 17,100 75,100" stroke="#583024" stroke-width="3" transform="rotate(57 46 71)"/>
<polygon fill="#d77946" fill-opacity="18%" points="13,56 0,134 52,134" stroke="#705476" stroke-width="2" transform="rotate(68 13 95)"/>
<circle cx="12" cy="81" fill="#04e69b" fill-opacity="42%" r="43" stroke="#bbdb88" stroke-width="5"/>
<circle cx="16" cy="17" fill="#0c02f5" fill-opacity="15%" r="95" stroke="#0ee45c" stroke-width="3"/>
<rect fill="#816f46" fill-opacity="53%" height="51" stroke="#b50d35" stroke-width="2" transform="rotate(31 39 46)" width="51" x="39" y="46"/>
<rect fill="#af4bc2" fill-opacity="14%" height="33" stroke="#387651" stroke-width="4" transform="rotate(25 95 22)" width="33" x="95" y="22"/>
<rect fill="#47538c" fill-opacity="8%" height="7" stroke="#98d5a6" stroke-width="4" transform="rotate(72 70 44)" width="7" x="70" y="44"/>
<circle cx="87" cy="76" fill="#fd1182" fill-opacity="41%" r="89" stroke="#4570df" stroke-width="3"/>
<circle cx="88" cy="56" fill="#6805d6" fill-opacity="16%" r="91" stroke="#a2826a" stroke-width="2"/>
<rect fill="#d15533" fill-opacity="26%" height="3" stroke="#f787a2" stroke-width="4" transform="rotate(73 14 31)" width="3" x="14" y="31"/>
<circle cx="20" cy="81" fill="#ff5db2" fill-opacity="54%" r="31" stroke="#80e9cc" stroke-width="4"/>
<polygon fill="#4acaf0" fill-opacity="28%" points="88,73 79,91 97,91" stroke="#7aa7f5" stroke-width="5" transform="rotate(67 88 82)"/>
<circle cx="10" cy="46" fill="#a31be0" fill-opacity="55%" r="89" stroke="#395570" stroke-width="1"/>
<circle cx="29" cy="45" fill="#ed0887" fill-opacity="40%" r="93" stroke="#afde96" stroke-width="3"/>
<polygon fill="#1aaf2f" fill-opacity="60%" points="88,34 78,54 98,54" stroke="#1aa713" stroke-width="1" transform="rotate(66 88 44)"/>
<rect fill="#dd3f81" fill-opacity="62%" height="36" stroke="#a12556" stroke-width="2" transform="rotate(78 46 68)" width="36" x="46" y="68"/>
<rect fill="#8e4e6e" fill-opacity="5%" height="21" stroke="#02cd41" stroke-width="4" transform="rotate(31 40 17)" width="21" x="40" y="17"/>
<circle cx="77" cy="89" fill="#08e5af" fill-opacity="48%" r="85" stroke="#6daf6f" stroke-width="4"/>
<polygon fill="#cbf33e" fill-opacity="57%" points="33,55 0,133 72,133" stroke="#4593b5" stroke-width="5" transform="rotate(46 33 94)"/>
<rect fill="#2ecac5" fill-opacity="15%" height="62" stroke="#c4b9de" stroke-width="3" transform="rotate(42 45 9)" width="62" x="45" y="9"/>
<circle cx="15" cy="34" fill="#fd5117" fill-opacity="25%" r="28" stroke="#de985e" stroke-width="1"/>
<rect fill="#634ef3" fill-opacity="58%" height="49" stroke="#422214" stroke-width="3" transform="rotate(54 92 12)" width="49" x="92" y="12"/>
<rect fill="#9849fb" fill-opacity="35%" height="87" stroke="#4f9639" stroke-width="3" transform="rotate(85 90 75)" width="87" x="90" y="75"/>
<rect fill="#1ee3f2" fill-opacity="35%" height="64" stroke="#f1e20a" stroke-width="1" transform="rotate(61 63 95)" width="64" x="63" y="95"/>
<rect fill="#9c620d" fill-opacity="50%" height="11" stroke="#979139" stroke-width="5" transform="rotate(51 97 9)" width="11" x="97" y="9"/>
<circle cx="59" cy="34" fill="#f13019" fill-opacity="64%" r="92" stroke="#39d0a7" stroke-width="1"/>
<circle cx="28" cy="0" fill="#0e9283" fill-opacity="1%" r="72" stroke="#08ab0a" stroke-width="3"/>
<polygon fill="#f446cc" fill-opacity="34%" points="51,0 27,32 75,32" stroke="#9c407b" stroke-width="1" transform="rotate(0 51 8)"/>
<polygon fill="#b54dd7" fill-opacity="56%" points="16,1 1,31 31,31" stroke="#24204b" stroke-width="2" transform="rotate(62 16 16)"/>
<circle cx="73" cy="2" fill="#2357d8" fill-opacity="17%" r="69" stroke="#f0e10c" stroke-width="5"/>
<rect fill="#02fc10" fill-opacity="33%" height="52" stroke="#cfe6f1" stroke-width="3" transform="rotate(81 29 49)" width="52" x="29" y="49"/>
<rect fill="#678aea" fill-opacity="4%" height="36" stroke="#ce2ee0" stroke-width="2" transform="rotate(38 70 25)" width="36" x="70" y="25"/>
<rect fill="#0ca041" fill-opacity="35%" height="6" stroke="#819fc3" stroke-width="1" transform="rotate(4 81 36)" width="6" x="81" y="36"/>
<polygon fill="#1ef86b" fill-opacity="60%" points="87,0 45,52 129,52" stroke="#910e53" stroke-width="3" transform="rotate(51 87 10)"/>
<polygon fill="#a404f6" fill-opacity="64%" points="2,0 0,36 29,36" stroke="#fd8767" stroke-width="2" transform="rotate(9 2 9)"/>
<polygon fill="#a53782" fill-opacity="25%" points="93,0 44,82 142,82" stroke="#e7d11c" stroke-width="2" transform="rotate(69 93 33)"/>
<circle cx="4" cy="63" fill="#09b640" fill-opacity="45%" r="5" stroke="#58bd63" stroke-width="5"/>
<polygon fill="#1e49a1" fill-opacity="50%" points="67,0 32,69 102,69" stroke="#d88279" stroke-width="3" transform="rotate(37 67 34)"/>
<polygon fill="#cf5c13" fill-opacity="10%" points="80,16 31,114 129,114" stroke="#e90349" stroke-width="4" transform="rotate(88 80 65)"/>
<rect fill="#aaef2d" fill-opacity="7%" height="66" stroke="#510113" stroke-width="3" transform="rotate(77 48 48)" width="66" x="48" y="48"/>
<circle cx="38" cy="62" fill="#c8308e" fill-opacity="23%" r="83" stroke="#42f0fd" stroke-width="1"/>
<polygon fill="#2b992a" fill-opacity="31%" points="35,68 19,100 51,100" stroke="#24fb29" stroke-width="5" transform="rotate(56 35 84)"/>
<rect fill="#9601f5" fill-opacity="64%" height="93" stroke="#181650" stroke-width="5" transform="rotate(55 4 50)" width="93" x="4" y="50"/>
<rect fill="#b181d5" fill-opacity="55%" height="69" stroke="#3f554c" stroke-width="2" transform="rotate(3 75 42)" width="69" x="75" y="42"/>
<circle cx="73" cy="62" fill="#7b7dfd" fill-opacity="4%" r="77" stroke="#b50856" stroke-width="4"/>
<polygon fill="#1f829c" fill-opacity="48%" points="98,70 80,106 116,106" stroke="#3385b7" stroke-width="4" transform="rotate(39 98 88)"/>
<polygon fill="#e98cfc" fill-opacity="37%" points="79,0 43,40 115,40" stroke="#ac71b1" stroke-width="2" transform="rotate(29 79 4)"/>
<polygon fill="#147551" fill-opacity="36%" points="14,65 12,69 16,69" stroke="#33c276" stroke-width="4" transform="rotate(3 14 67)"/>
<rect fill="#013a86" fill-opacity="1%" height="13" stroke="#280944" stroke-width="1" transform="rotate(87 23 67)" width="13" x="23" y="67"/>
<rect fill="#7383c7" fill-opacity="63%" height="31" stroke="#863fca" stroke-width="5" transform="rotate(54 85 86)" width="31" x="85" y="86"/>
<rect fill="#945da3" fill-opacity="23%" height="44" stroke="#3e77c1" stroke-width="2" transform="rotate(60 3 7)" width="44" x="3" y="7"/>
<polygon fill="#d5e5fe" fill-opacity="64%" points="83,13 67,45 99,45" stroke="#dcaeac" stroke-width="3" transform="rotate(83 83 29)"/>
<polygon fill="#d22a9d" fill-opacity="33%" points="5,18 0,38 15,38" stroke="#8d205d" stroke-width="4" transform="rotate(18 5 28)"/>
<rect fill="#e85613" fill-opacity="15%" height="27" stroke="#bd7f23" stroke-width="1" transform="rotate(75 17 32)" width="27" x="17" y="32"/>
<polygon fill="#db1446" fill-opacity="54%" points="91,52 71,92 111,92" stroke="#5f8d03" stroke-width="1" transform="rotate(19 91 72)"/>
<circle cx="40" cy="9" fill="#2b5317" fill-opacity="58%" r="72" stroke="#69835a" stroke-width="5"/>
<rect fill="#58f246" fill-opacity="44%" height="55" stroke="#7dd3fb" stroke-width="5" transform="rotate(4 60 65)" width="55" x="60" y="65"/>
<rect fill="#9ad6ee" fill-opacity="16%" height="74" stroke="#792b12" stroke-width="5" transform="rotate(47 34 71)" width="74" x="34" y="71"/>
<circle cx="52" cy="43" fill="#1bbf2d" fill-opacity="36%" r="46" stroke="#bf2e61" stroke-width="3"/>
<circle cx="56" cy="76" fill="#068eb5" fill-opacity="48%" r="56" stroke="#18e721" stroke-width="4"/>
<circle cx="70" cy="97" fill="#51d021" fill-opacity="3%" r="77" stroke="#741b55" stroke-width="5"/>
<rect fill="#1b324d" fill-opacity="36%" height="7" stroke="#3a106b" stroke-width="1" transform="rotate(6 10 67)" width="7" x="10" y="67"/>
<polygon fill="#c302db" fill-opacity="50%" points="83,0 47,68 119,68" stroke="#e9ea0b" stroke-width="4" transform="rotate(89 83 32)"/>
<circle cx="63" cy="1" fill="#8de12d" fill-opacity="49%" r="11" stroke="#588425" stroke-width="4"/>
<polygon fill="#59fc64" fill-opacity="32%" points="67,50 39,106 95,106" stroke="#d99999" stroke-width="3" transform="rotate(83 67 78)"/>
<polygon fill="#e8d6c6" fill-opacity="3%" points="87,9 54,75 120,75" stroke="#332685" stroke-width="3" transform="rotate(35 87 42)"/>
<polygon fill="#eeb1ad" fill-opacity="4%" points="19,72 1,108 37,108" stroke="#1194d4" stroke-width="5" transform="rotate(27 19 90)"/>
<circle cx="67" cy="48" fill="#c5aa7a" fill-opacity="25%" r="18" stroke="#2f932b" stroke-width="4"/>
<rect fill="#60d785" fill-opacity="4%" height="3" stroke="#61f24a" stroke-width="2" transform="rotate(16 0 83)" width="3" x="0" y="83"/>
<rect fill="#7a0797" fill-opacity="9%" height="58" stroke="#973d2e" stroke-width="4" transform="rotate(55 53 41)" width="58" x="53" y="41"/>
<polygon fill="#0d9981" fill-opacity="37%" points="36,41 23,67 49,67" stroke="#38a94b" stroke-width="4" transform="rotate(40 36 54)"/>
<circle cx="12" cy="79" fill="#39ada5" fill-opacity="3%" r="45" stroke="#bb1749" stroke-width="4"/>
<circle cx="98" cy="74" fill="#5db7d1" fill-opacity="30%" r="44" stroke="#265aaf" stroke-width="1"/>
<circle cx="40" cy="69" fill="#de9a54" fill-opacity="51%" r="21" stroke="#f9d390" stroke-width="3"/>
<circle cx="78" cy="81" fill="#1d54e5" fill-opacity="32%" r="45" stroke="#fd49a9" stroke-width="2"/>
<polygon fill="#88edb4" fill-opacity="51%" points="13,24 12,26 14,26" stroke="#b4b281" stroke-width="3" transform="rotate(28 13 25)"/>
<rect fill="#b801d0" fill-opacity="1%" height="89" stroke="#87b913" stroke-width="3" transform="rotate(50 39 18)" width="89" x="39" y="18"/>
<circle cx="8" cy="44" fill="#f94d5d" fill-opacity="11%" r="38" stroke="#d0af9b" stroke-width="3"/>
<circle cx="73" cy="57" fill="#36c422" fill-opacity="28%" r="71" stroke="#256d6b" stroke-width="4"/>
<rect fill="#54770c" fill-opacity="33%" height="37" stroke="#034307" stroke-width="1" transform="rotate(31 66 47)" width="37" x="66" y="47"/>
<polygon fill="#2484db" fill-opacity="22%" points="92,0 75,26 109,26" stroke="#76dc26" stroke-width="3" transform="rotate(73 92 9)"/>
<rect fill="#a01533" fill-opacity="60%" height="5" stroke="#a84f82" stroke-width="5" transform="rotate(60 88 39)" width="5" x="88" y="39"/>
<circle cx="77" cy="67" fill="#e098ce" fill-opacity="46%" r="58" stroke="#1272b0" stroke-width="2"/>
<polygon fill="#74fef4" fill-opacity="6%" points="48,15 0,113 97,113" stroke="#85e3ea" stroke-width="5" transform="rotate(47 48 64)"/>
<polygon fill="#edf0a7" fill-opacity="27%" points="85,17 56,75 114,75" stroke="#3834fa" stroke-width="5" transform="rotate(18 85 46)"/>
<rect fill="#f166b5" fill-opacity="29%" height="1" stroke="#dd3fca" stroke-width="1" transform="rotate(47 90 52)" width="1" x="90" y="52"/>
<circle cx="43" cy="95" fill="#0146c1" fill-opacity="50%" r="60" stroke="#d1a2f9" stroke-width="3"/>
<circle cx="48" cy="61" fill="#2e34b9" fill-opacity="23%" r="37" stroke="#d1f7d7" stroke-width="5"/>
<circle cx="83" cy="18" fill="#d26387" fill-opacity="46%" r="82" stroke="#ed9cff" stroke-width="1"/>
<polygon fill="#ee2a83" fill-opacity="48%" points="24,0 15,9 33,9" stroke="#db9e47" stroke-width="2" transform="rotate(3 24 0)"/>
<polygon fill="#b8f39e" fill-opacity="14%" points="93,35 47,127 139,127" stroke="#558b45" stroke-width="5" transform="rotate(51 93 81)"/>
<rect fill="#707563" fill-opacity="5%" height="70" stroke="#c85290" stroke-width="5" transform="rotate(48 45 41)" width="70" x="45" y="41"/>
<circle cx="47" cy="4" fill="#13d8d7" fill-opacity="19%" r="22" stroke="#1a48fd" stroke-width="3"/>
<rect fill="#8ccc13" fill-opacity="31%" height="20" stroke="#e0587b" stroke-width="4" transform="rotate(69 82 53)" width="20" x="82" y="53"/>
<circle cx="35" cy="28" fill="#835614" fill-opacity="3%" r="13" stroke="#8461ad" stroke-width="4"/>
<rect fill="#d8d814" fill-opacity="13%" height="30" stroke="#06721a" stroke-width="1" transform="rotate(83 56 72)" width="30" x="56" y="72"/>
<circle cx="66" cy="76" fill="#e3c790" fill-opacity="52%" r="98" stroke="#dfcd75" stroke-width="4"/>
<rect fill="#00ebf7" fill-opacity="10%" height="41" stroke="#4d69b0" stroke-width="1" transform="rotate(61 14 12)" width="41" x="14" y="12"/>
<rect fill="#a9cf65" fill-opacity="30%" height="25" stroke="#c96c97" stroke-width="3" transform="rotate(36 34 40)" width="25" x="34" y="40"/>
<circle cx="70" cy="12" fill="#e139c6" fill-opacity="51%" r="37" stroke="#72db6b" stroke-width="3"/>
<rect fill="#5fb57f" fill-opacity="41%" height="4" stroke="#de913d" stroke-width="4" transform="rotate(5 95 29)" width="4" x="95" y="29"/>
<circle cx="0" cy="11" fill="#7d6786" fill-opacity="30%" r="73" stroke="#d3ffa7" stroke-width="4"/>
<rect fill="#ecb7ee" fill-opacity="54%" height="58" stroke="#706f27" stroke-width="3" transform="rotate(77 36 72)" width="58" x="36" y="72"/>
<polygon fill="#ca5760" fill-opacity="9%" points="98,20 72,72 124,72" stroke="#c3488b" stroke-width="1" transform="rotate(8 98 46)"/>
<polygon fill="#c4ba79" fill-opacity="33%" points="76,62 53,108 99,108" stroke="#0f211d" stroke-width="2" transform="rotate(39 76 85)"/>
<polygon fill="#bb6f5d" fill-opacity="41%" points="39,0 11,41 67,41" stroke="#632380" stroke-width="1" transform="rotate(64 39 13)"/>
<polygon fill="#1d87a3" fill-opacity="18%" points="21,0 0,27 46,27" stroke="#51decf" stroke-width="3" transform="rotate(6 21 2)"/>
<rect fill="#e41e0f" fill-opacity="22%" height="28" stroke="#9f16b7" stroke-width="4" transform="rotate(55 4 17)" width="28" x="4" y="17"/>
<circle cx="91" cy="3" fill="#cad71f" fill-opacity="47%" r="4" stroke="#1d7441" stroke-width="5"/>
<circle cx="84" cy="62" fill="#98231b" fill-opacity="4%" r="90" stroke="#b8d482" stroke-width="3"/>
<circle cx="54" cy="65" fill="#730375" fill-opacity="34%" r="11" stroke="#5d5386" stroke-width="5"/>
<polygon fill="#df3cbe" fill-opacity="62%" points="37,53 0,145 83,145" stroke="#b49fc9" stroke-width="1" transform="rotate(9 37 99)"/>
<rect fill="#e96e2c" fill-opacity="14%" height="99" stroke="#ca15f7" stroke-width="5" transform="rotate(76 93 11)" width="99" x="93" y="11"/>
<polygon fill="#a4a812" fill-opacity="26%" points="80,22 42,98 118,98" stroke="#1ea088" stroke-width="4" transform="rotate(38 80 60)"/>
<circle cx="33" cy="30" fill="#73bd36" fill-opacity="22%" r="72" stroke="#2e74b3" stroke-width="1"/>
<circle cx="11" cy="65" fill="#5e51f4" fill-opacity="5%" r="68" stroke="#8fd922" stroke-width="3"/>
<rect fill="#7dad73" fill-opacity="17%" height="73" stroke="#2d687d" stroke-width="4" transform="rotate(83 64 98)" width="73" x="64" y="98"/>
<rect fill="#afd140" fill-opacity="8%" height="92" stroke="#72908e" stroke-width="2" transform="rotate(84 7 92)" width="92" x="7" y="92"/>
<circle cx="10" cy="26" fill="#f040b1" fill-opacity="27%" r="84" stroke="#aeda3a" stroke-width="5"/>
<rect fill="#bd5620" fill-opacity="42%" height="77" stroke="#9628b3" stroke-width="4" transform="rotate(43 52 82)" width="77" x="52" y="82"/>
<circle cx="79" cy="8" fill="#e32ce9" fill-opacity="10%" r="27" stroke="#ef460b" stroke-width="1"/>
<polygon fill="#3312a7" fill-opacity="1%" points="59,30 24,100 94,100" stroke="#db23b9" stroke-width="3" transform="rotate(84 59 65)"/>
<rect fill="#f2dca9" fill-opacity="15%" height="62" stroke="#5afceb" stroke-width="1" transform="rotate(67 52 40)" width="62" x="52" y="40"/>
<circle cx="24" cy="54" fill="#58c254" fill-opacity="59%" r="74" stroke="#88a055" stroke-width="1"/>
<polygon fill="#b76246" fill-opacity="38%" points="7,27 2,37 12,37" stroke="#3538ee" stroke-width="1" transform="rotate(53 7 32)"/>
<circle cx="31" cy="7" fill="#092890" fill-opacity="51%" r="1" stroke="#8d39dd" stroke-width="3"/>
<rect fill="#9566ac" fill-opacity="6%" height="93" stroke="#1a8c52" stroke-width="4" transform="rotate(20 18 20)" width="93" x="18" y="20"/>
<circle cx="81" cy="54" fill="#958257" fill-opacity="6%" r="51" stroke="#05023b" stroke-width="1"/>
<polygon fill="#ece5de" fill-opacity="41%" points="91,0 77,22 105,22" stroke="#25eb90" stroke-width="4" transform="rotate(10 91 8)"/>
<circle cx="30" cy="64" fill="#80631b" fill-opacity="62%" r="93" stroke="#5b8dce" stroke-width="3"/>
<rect fill="#89d520" fill-opacity="61%" height="63" stroke="#512b00" stroke-width="1" transform="rotate(33 80 17)" width="63" x="80" y="17"/>
<rect fill="#72b0e7" fill-opacity="18%" height="34" stroke="#8a4731" stroke-width="4" transform="rotate(21 33 81)" width="34" x="33" y="81"/>
<circle cx="47" cy="84" fill="#b93b9d" fill-opacity="3%" r="98" stroke="#9f0799" stroke-width="2"/>
<polygon fill="#44d99f" fill-opacity="16%" points="19,0 0,53 47,53" stroke="#dbe4bf" stroke-width="1" transform="rotate(62 19 25)"/>
<circle cx="28" cy="88" fill="#8a0975" fill-opacity="55%" r="27" stroke="#8f0241" stroke-width="4"/>
<circle cx="73" cy="81" fill="#b22836" fill-opacity="49%" r="74" stroke="#dde6d3" stroke-width="5"/>
<polygon fill="#e655dc" fill-opacity="9%" points="7,23 0,99 45,99" stroke="#c8490e" stroke-width="3" transform="rotate(66 7 61)"/>
<circle cx="95" cy="37" fill="#4388d8" fill-opacity="19%" r="76" stroke="#1fec3a" stroke-width="1"/>
<polygon fill="#5a6e7a" fill-opacity="38%" points="56,22 18,98 94,98" stroke="#508d7b" stroke-width="2" transform="rotate(74 56 60)"/>
<rect fill="#f063bc" fill-opacity="24%" height="48" stroke="#6236ed" stroke-width="2" transform="rotate(36 56 13)" width="48" x="56" y="13"/>
<rect fill="#b4296b" fill-opacity="43%" height="4" stroke="#fa1f83" stroke-width="5" transform="rotate(86 36 71)" width="4" x="36" y="71"/>
<rect fill="#53d7cb" fill-opacity="58%" height="74" stroke="#e73815" stroke-width="4" transform="rotate(50 26 5)" width="74" x="26" y="5"/>
<polygon fill="#984218" fill-opacity="33%" points="69,8 61,24 77,24" stroke="#f34311" stroke-width="1" transform="rotate(75 69 16)"/>
<polygon fill="#b7c305" fill-opacity="11%" points="10,26 5,36 15,36" stroke="#7362eb" stroke-width="4" transform="rotate(59 10 31)"/>
<circle cx="50" cy="37" fill="#7a0e7a" fill-opacity="18%" r="89" stroke="#94188c" stroke-width="5"/>
<polygon fill="#26eefe" fill-opacity="58%" points="91,14 75,46 107,46" stroke="#a22fd3" stroke-width="4" transform="rotate(37 91 30)"/>
<circle cx="95" cy="64" fill="#629cf7" fill-opacity="0%" r="31" stroke="#afa00f" stroke-width="5"/>
<rect fill="#fe9c97" fill-opacity="7%" height="2" stroke="#f84929" stroke-width="5" transform="rotate(63 42 33)" width="2" x="42" y="33"/>
<rect fill="#626e53" fill-opacity="52%" height="29" stroke="#f8c402" stroke-width="4" transform="rotate(16 8 51)" width="29" x="8" y="51"/>
<rect fill="#fff6ac" fill-opacity="39%" height="85" stroke="#620dfe" stroke-width="2" transform="rotate(30 22 4)" width="85" x="22" y="4"/>
<circle cx="44" cy="46" fill="#d3e41b" fill-opacity="24%" r="3" stroke="#e2b0ae" stroke-width="5"/>
<polygon fill="#06d255" fill-opacity="44%" points="69,3 28,85 110,85" stroke="#679f64" stroke-width="5" transform="rotate(34 69 44)"/>
<circle cx="49" cy="65" fill="#c56fe5" fill-opacity="7%" r="99" stroke="#539b6e" stroke-width="1"/>
<circle cx="70" cy="32" fill="#189d65" fill-opacity="41%" r="80" stroke="#c0dbcc" stroke-width="5"/>
<polygon fill="#4469d6" fill-opacity="37%" points="82,18 63,56 101,56" stroke="#809987" stroke-width="3" transform="rotate(12 82 37)"/>
<rect fill="#377cca" fill-opacity="35%" height="80" stroke="#97c37a" stroke-width="4" transform="rotate(7 88 57)" width="80" x="88" y="57"/>
<rect fill="#225462" fill-opacity="18%" height="82" stroke="#cb3ba7" stroke-width="3" transform="rotate(42 54 3)" width="82" x="54" y="3"/>
<polygon fill="#041e8e" fill-opacity="64%" points="1,46 0,74 15,74" stroke="#7d4ef8" stroke-width="4" transform="rotate(68 1 60)"/>
<polygon fill="#fa946c" fill-opacity="44%" points="89,74 84,84 94,84" stroke="#b14e21" stroke-width="4" transform="rotate(75 89 79)"/>
<polygon fill="#fb1034" fill-opacity="35%" points="94,26 82,50 106,50" stroke="#e9511c" stroke-width="1" transform="rotate(24 94 38)"/>
<rect fill="#08fc4d" fill-opacity="0%" height="25" stroke="#eb6baf" stroke-width="5" transform="rotate(81 36 73)" width="25" x="36" y="73"/>
<rect fill="#88e8a4" fill-opacity="54%" height="42" stroke="#db7979" stroke-width="3" transform="rotate(39 83 84)" width="42" x="83" y="84"/>
<rect fill="#c637fa" fill-opacity="44%" height="83" stroke="#fb2bdc" stroke-width="4" transform="rotate(4 51 72)" width="83" x="51" y="72"/>
<rect fill="#147dd1" fill-opacity="19%" height="19" stroke="#83d6a5" stroke-width="4" transform="rotate(37 50 38)" width="19" x="50" y="38"/>
<circle cx="41" cy="51" fill="#87ffb6" fill-opacity="28%" r="76" stroke="#7e2cb4" stroke-width="1"/>
<rect fill="#3d76dd" fill-opacity="57%" height="22" stroke="#7157bb" stroke-width="4" transform="rotate(12 41 17)" width="22" x="41" y="17"/>
<circle cx="10" cy="28" fill="#f222c0" fill-opacity="64%" r="23" stroke="#2ea0d4" stroke-width="4"/>
<polygon fill="#f5ed31" fill-opacity="47%" points="84,0 37,53 131,53" stroke="#2db7ae" stroke-width="3" transform="rotate(52 84 6)"/>
</svg>